<svg xmlns="http://www.w3.org/2000/svg" viewBox="102.4 153.6 870.4 819.2">
  <path d="M512 819.2c-23.3 31.1-60.5 51.2-102.4 51.2H179.2a76.8 76.8 0 0 1-76.8-76.8V230.4a76.8 76.8 0 0 1 76.8-76.8h230.4c41.9 0 79.1 20.1 102.4 51.2 23.3-31.1 60.5-51.2 102.4-51.2h230.4a76.8 76.8 0 0 1 76.8 76.8v358.4c0-41.9-20.1-79.1-51.2-102.4v-256a25.6 25.6 0 0 0-25.6-25.6H614.4a76.8 76.8 0 0 0-76.8 76.8v460.8c0 26.8 13.8 50.5 34.7 64.2 6.6 22.7 16.5 43.9 29.2 63.2a127.8 127.8 0 0 1-89.5-50.6M153.6 230.4v563.2a25.6 25.6 0 0 0 25.6 25.6h230.4a76.8 76.8 0 0 0 76.8-76.8V281.6a76.8 76.8 0 0 0-76.8-76.8H179.2a25.6 25.6 0 0 0-25.6 25.6M892.2 824a127.5 127.5 0 0 0 29.4-81.6 25.6 25.6 0 0 1 51.2 0 179.3 179.3 0 0 1-153.6 177.4v27.4a25.6 25.6 0 0 1-51.2 0v-27.4a179.8 179.8 0 0 1-136.3-100.6 178.5 178.5 0 0 1-17.3-76.8 25.6 25.6 0 0 1 51.2 0A127.5 127.5 0 0 0 695 824c23.4 28.3 58.9 46.4 98.5 46.4h.2c39.7 0 75.1-18.1 98.5-46.4M716.8 588.8a76.8 76.8 0 0 1 153.6 0v153.6a76.8 76.8 0 0 1-153.6 0z"/>
</svg>
